<svg id="Layer_1" data-name="Layer 1" xmlns="http://www.w3.org/2000/svg" xmlns:xlink="http://www.w3.org/1999/xlink" viewBox="0 0 629.29 189.43"><defs><style>.cls-1{fill:none;}.cls-2{fill:#f27916;}.cls-3{clip-path:url(#clip-path);}.cls-4{fill:#277cd4;}</style><clipPath id="clip-path" transform="translate(-13.93 -45.14)"><rect class="cls-1" x="-171.43" y="-360.14" width="1000" height="1000"/></clipPath></defs><title>Orion eSolutions Logo_Final</title><rect class="cls-2" x="296.49" y="10.37" width="33.24" height="126.71"/><g class="cls-3"><path class="cls-2" d="M415.35,183.38a63.94,63.94,0,1,1,63.94-63.94,64,64,0,0,1-63.94,63.94m0-97.15a33.22,33.22,0,1,0,33.21,33.21,33.25,33.25,0,0,0-33.21-33.21" transform="translate(-13.93 -45.14)"/><path class="cls-2" d="M301.32,156.09v26.13H288.94a39.81,39.81,0,0,1-29.88-13.51L239.2,146.12H205.56a100.42,100.42,0,0,0,1.23-15.71,102.18,102.18,0,0,0-1.38-16.7h45.78a12,12,0,0,0,8.75-3.71,13.22,13.22,0,0,0,0-18.37,12,12,0,0,0-8.75-3.69H197.36a100.43,100.43,0,0,0-24.17-32.43h78a44.14,44.14,0,0,1,32.41,13.3,43.7,43.7,0,0,1,13.3,32,43.65,43.65,0,0,1-13.3,32,42.74,42.74,0,0,1-8.55,6.91l10.56,11.92a13.15,13.15,0,0,0,9.87,4.44Z" transform="translate(-13.93 -45.14)"/><polygon class="cls-2" points="590.41 10.53 555.11 10.53 555.11 78.95 511.14 10.53 474.52 10.53 474.52 138.06 509.56 138.06 509.56 69.13 553.69 138.06 590.41 138.06 590.41 10.53"/><polygon class="cls-2" points="602.93 24.8 602.93 11.71 598.24 11.71 598.24 9.32 610.33 9.32 610.33 11.71 605.65 11.71 605.65 24.8 602.93 24.8"/><polygon class="cls-2" points="626.58 24.8 626.58 12.85 621.84 24.8 620.68 24.8 615.92 12.85 615.92 24.8 613.21 24.8 613.21 9.32 617.04 9.32 621.26 19.95 625.46 9.32 629.29 9.32 629.29 24.8 626.58 24.8"/><path class="cls-2" d="M114,45.14a84.46,84.46,0,1,0,84.46,84.47A84.47,84.47,0,0,0,114,45.14M42,135.87a5.75,5.75,0,1,1,5.81-5.69A5.75,5.75,0,0,1,42,135.87M144.4,65.25a8.22,8.22,0,1,1,2.9,11.26,8.22,8.22,0,0,1-2.9-11.26M74.61,62.4a6.16,6.16,0,1,1-2.33,8.4,6.16,6.16,0,0,1,2.33-8.4M89,197.22a8.7,8.7,0,1,1-3.07-11.92A8.7,8.7,0,0,1,89,197.22m67.92-1.86a6.16,6.16,0,1,1,2.34-8.4,6.16,6.16,0,0,1-2.34,8.4m-42.88-11a54.77,54.77,0,1,1,54.76-54.77A54.77,54.77,0,0,1,114,184.38m70.08-64.33a5.28,5.28,0,1,1,5.34-5.23,5.29,5.29,0,0,1-5.34,5.23" transform="translate(-13.93 -45.14)"/><path class="cls-4" d="M48.05,55.38a6.21,6.21,0,1,1-8.28,2.93,6.21,6.21,0,0,1,8.28-2.93" transform="translate(-13.93 -45.14)"/><path class="cls-4" d="M195.48,186.59a6.94,6.94,0,1,1-9.25,3.28,6.94,6.94,0,0,1,9.25-3.28" transform="translate(-13.93 -45.14)"/><path class="cls-4" d="M18.5,163.82a10.57,10.57,0,1,1-2.71,14.69,10.57,10.57,0,0,1,2.71-14.69" transform="translate(-13.93 -45.14)"/><path class="cls-4" d="M97.5,227a6.34,6.34,0,1,1,6.82,5.82A6.35,6.35,0,0,1,97.5,227" transform="translate(-13.93 -45.14)"/><polygon class="cls-4" points="99.33 124.39 64.88 104.5 64.88 64.72 99.33 44.83 134.61 65.2 99.98 85.56 99.13 84.11 131.28 65.21 99.33 46.77 66.56 65.69 66.56 103.53 99.33 122.45 132.85 102.7 133.7 104.14 99.33 124.39"/><path class="cls-4" d="M89.1,147.8a8.27,8.27,0,1,1-8.27-8.27,8.26,8.26,0,0,1,8.27,8.27" transform="translate(-13.93 -45.14)"/><path class="cls-4" d="M107.4,172.2A11.08,11.08,0,0,0,123.2,175a10.74,10.74,0,0,0,4.16-7.14,16.68,16.68,0,0,1,8.21-11.72l.31-.19a8.8,8.8,0,0,1,8-.39,7.79,7.79,0,1,0-4.87-7.93,8,8,0,0,1-4,6.1l-1.55.93A16.81,16.81,0,0,1,119.74,156a10.77,10.77,0,0,0-9,1.21,10.9,10.9,0,0,0-3.36,15" transform="translate(-13.93 -45.14)"/><path class="cls-4" d="M155.84,104.58a11.07,11.07,0,0,0-15.79-2.83,10.74,10.74,0,0,0-4.16,7.15,16.64,16.64,0,0,1-8.21,11.71l-.31.19a8.77,8.77,0,0,1-8,.4,7.79,7.79,0,1,0,4.86,7.92,8,8,0,0,1,4-6.09l1.55-.94a16.81,16.81,0,0,1,13.72-1.26,10.76,10.76,0,0,0,9-1.2,10.9,10.9,0,0,0,3.35-15" transform="translate(-13.93 -45.14)"/><path class="cls-4" d="M73.65,114.68a11.08,11.08,0,0,0,15.8,2.83,10.8,10.8,0,0,0,4.16-7.15,16.65,16.65,0,0,1,8.21-11.71l.31-.19a8.8,8.8,0,0,1,8-.4,7.79,7.79,0,1,0-4.87-7.92,8.07,8.07,0,0,1-4,6.1l-1.56.93A16.81,16.81,0,0,1,86,98.43a10.77,10.77,0,0,0-9,1.21,10.89,10.89,0,0,0-3.35,15" transform="translate(-13.93 -45.14)"/><path class="cls-4" d="M226.49,234.57H201.91a12.87,12.87,0,0,1-8.9-3.46,10.77,10.77,0,0,1-3.79-8.11v-7.64a10.56,10.56,0,0,1,3.79-8.11,12.54,12.54,0,0,1,8.81-3.46h16.62a12.35,12.35,0,0,1,8.81,3.46,10.59,10.59,0,0,1,3.79,8.11v6.22H199v.82a4.14,4.14,0,0,0,1.41,3.27,5.78,5.78,0,0,0,3.67,1.26h25Zm-5-18.84v-.37A4.25,4.25,0,0,0,220,212a5.21,5.21,0,0,0-3.69-1.29H204.05a5.24,5.24,0,0,0-3.7,1.29,4.23,4.23,0,0,0-1.38,3.3v.47Z" transform="translate(-13.93 -45.14)"/><path class="cls-4" d="M251.23,219a12.44,12.44,0,0,1-9.28-3.62,11.89,11.89,0,0,1-3.58-8.65,11.44,11.44,0,0,1,3.58-8.46c2.28-2.29,5.36-3.42,9.28-3.42h33.51l-3,8.55H252.39a3,3,0,0,0-2.17.91,3.16,3.16,0,0,0-.91,2.2,3.29,3.29,0,0,0,.91,2.08,3.41,3.41,0,0,0,2.32.91H274.3a12.71,12.71,0,0,1,9.53,3.62,12,12,0,0,1,3.67,8.71,12.3,12.3,0,0,1-3.67,8.93,12.8,12.8,0,0,1-9.53,3.77H238.87l3-8.59h32a3.45,3.45,0,0,0,2.54-1,3.37,3.37,0,0,0,1-2.46,3.33,3.33,0,0,0-1-2.42,3.17,3.17,0,0,0-2.41-1Z" transform="translate(-13.93 -45.14)"/><path class="cls-4" d="M295.15,215.36a10.6,10.6,0,0,1,3.79-8.12,12.55,12.55,0,0,1,8.81-3.45h17.52a12.55,12.55,0,0,1,8.81,3.45,10.44,10.44,0,0,1,3.8,8v7.77a10.53,10.53,0,0,1-3.8,8.05,12.87,12.87,0,0,1-8.9,3.46H307.84a12.87,12.87,0,0,1-8.9-3.46,10.77,10.77,0,0,1-3.79-8.11Zm9.9,6.25a4.52,4.52,0,0,0,1.41,3.21,5,5,0,0,0,3.7,1.45h12.7a4.77,4.77,0,0,0,3.7-1.45,4.34,4.34,0,0,0,1.41-3.14v-5.13a4.24,4.24,0,0,0-1.41-3.14,4.77,4.77,0,0,0-3.7-1.45h-12.7a4.87,4.87,0,0,0-3.7,1.45,4.42,4.42,0,0,0-1.41,3.2Z" transform="translate(-13.93 -45.14)"/><polygon class="cls-4" points="343.42 143.67 343.42 189.43 333.48 189.43 333.48 149.74 343.42 143.67"/><path class="cls-4" d="M377.4,203.79v17.89a4.35,4.35,0,0,0,1.41,3.39,5.38,5.38,0,0,0,3.7,1.26h13.41V203.79h9.91v30.78h-7.71l-1.44-3.87a8.48,8.48,0,0,1-7.09,3.87h-9.4a12.88,12.88,0,0,1-8.91-3.46,10.77,10.77,0,0,1-3.79-8.11V203.79Z" transform="translate(-13.93 -45.14)"/><path class="cls-4" d="M429.06,210.83v12.83a4.15,4.15,0,0,0,.75,2.64,3.78,3.78,0,0,0,2.91.91h9.88l-2.51,7.36H429.53c-3.48,0-6.12-.85-7.84-2.55a9.73,9.73,0,0,1-2.54-7.17v-14h-6.3l2.38-7h3.92v-5l9.91-5.95v10.92h12l-2.39,7Z" transform="translate(-13.93 -45.14)"/><path class="cls-4" d="M458.93,199.51H449v-7.58h9.94Zm0,35.06H449V203.79h9.94Z" transform="translate(-13.93 -45.14)"/><path class="cls-4" d="M468.45,215.36a10.6,10.6,0,0,1,3.79-8.12,12.57,12.57,0,0,1,8.81-3.45h17.52a12.55,12.55,0,0,1,8.81,3.45,10.44,10.44,0,0,1,3.8,8v7.77a10.53,10.53,0,0,1-3.8,8.05,12.86,12.86,0,0,1-8.9,3.46H481.14a12.87,12.87,0,0,1-8.9-3.46,10.77,10.77,0,0,1-3.79-8.11Zm9.9,6.25a4.52,4.52,0,0,0,1.41,3.21,5,5,0,0,0,3.7,1.45h12.7a4.77,4.77,0,0,0,3.7-1.45,4.34,4.34,0,0,0,1.41-3.14v-5.13a4.24,4.24,0,0,0-1.41-3.14,4.77,4.77,0,0,0-3.7-1.45h-12.7a4.89,4.89,0,0,0-3.7,1.45,4.42,4.42,0,0,0-1.41,3.2Z" transform="translate(-13.93 -45.14)"/><path class="cls-4" d="M549.14,234.57V216.46a4.13,4.13,0,0,0-1.41-3.3,5.24,5.24,0,0,0-3.7-1.29H530.61v22.7H520.7V203.79h7.72l1.47,3.86a8.39,8.39,0,0,1,7-3.86h9.56a12.54,12.54,0,0,1,8.84,3.46,10.47,10.47,0,0,1,3.77,8.05v19.27Z" transform="translate(-13.93 -45.14)"/><path class="cls-4" d="M601.43,218.12a9.63,9.63,0,0,1,0,13.56,9.93,9.93,0,0,1-7.31,2.89H567.57l2.38-7.11h22.67a2.33,2.33,0,0,0,1.75-.69,2.12,2.12,0,0,0,.69-1.57,2,2,0,0,0-.69-1.64,2.1,2.1,0,0,0-1.63-.69H577.41a9.78,9.78,0,0,1-7.27-2.83,9.36,9.36,0,0,1,0-13.39,9.8,9.8,0,0,1,7.27-2.86H602l-2.38,7H579.32a2.25,2.25,0,0,0-2.25,2.26,2.26,2.26,0,0,0,.66,1.57,2.31,2.31,0,0,0,1.72.7h14.67a9.87,9.87,0,0,1,7.31,2.79" transform="translate(-13.93 -45.14)"/></g></svg>